 http://bayimg.com/daHAEAaDM

Format                           : MPEG-4
Format profile                   : Base Media
Codec ID                         : isom
File size                        : 1.30 GiB
Duration                         : 1h 22mn
Overall bit rate                 : 2 245 Kbps
Encoded date                     : UTC 2011-04-25 07:43:28
Tagged date                      : UTC 2011-04-25 07:43:28

Video
ID                               : 2
Format                           : AVC
Format/Info                      : Advanced Video Codec
Format profile                   : Baseline@L3.0
Format settings, CABAC           : No
Format settings, ReFrames        : 1 frame
Format settings, GOP             : M=1, N=25
Muxing mode                      : Container profile=Baseline@1.3
Codec ID                         : avc1
Codec ID/Info                    : Advanced Video Coding
Duration                         : 1h 22mn
Bit rate mode                    : Variable
Bit rate                         : 2 073 Kbps
Width                            : 720 pixels
Height                           : 480 pixels
Display aspect ratio             : 3:2
Frame rate mode                  : Constant
Frame rate                       : 29.970 fps
Original frame rate              : 29.000 fps
Standard                         : NTSC
Color space                      : YUV
Chroma subsampling               : 4:2:0
Bit depth                        : 8 bits
Scan type                        : Progressive
Bits/(Pixel*Frame)               : 0.200
Stream size                      : 1.20 GiB (92%)
Language                         : English

Audio
ID                               : 1
Format                           : AAC
Format/Info                      : Advanced Audio Codec
Format profile                   : LC
Codec ID                         : 40
Duration                         : 1h 22mn
Bit rate mode                    : Constant
Bit rate                         : 165 Kbps
Channel(s)                       : 2 channels
Channel positions                : Front: L R
Sampling rate                    : 48.0 KHz
Compression mode                 : Lossy
Stream size                      : 98.1 MiB (7%)
Language                         : English